<svg width="80" height="80" viewBox="0 0 80 80" fill="none" xmlns="http://www.w3.org/2000/svg">
<g clip-path="url(#clip0_2075_76)">
<rect x="-1" y="-1" width="82" height="82" rx="1.79355" fill="white"/>
<path d="M53.4581 54.3592C57.7559 54.3592 61.9222 53.3106 65.6187 51.3663C65.7009 51.3232 65.6702 51.1994 65.5777 51.1994H54.89C54.8208 51.1994 54.786 51.1161 54.8349 51.0667C55.0242 50.8743 55.2094 50.6782 55.3909 50.4785C55.47 50.3916 55.5818 50.3412 55.6993 50.3412H67.0907C67.293 50.3412 67.4902 50.2813 67.6603 50.1716C68.777 49.4486 69.8391 48.6398 70.8367 47.7509C70.9225 47.6744 70.8689 47.5325 70.754 47.5325H57.7975C57.7242 47.5325 57.6795 47.4524 57.7185 47.3899C57.8428 47.1886 57.9635 46.9858 58.0805 46.7798C58.1268 46.6987 58.2126 46.6482 58.3062 46.6482H71.672C71.8848 46.6482 72.0876 46.5608 72.2353 46.4079C73.0649 45.5497 73.8389 44.6301 74.5489 43.6544C74.6186 43.5581 74.5489 43.4234 74.4308 43.4234H59.7714C59.6965 43.4234 59.644 43.3496 59.6685 43.2783C59.7408 43.0687 59.8099 42.8575 59.8755 42.6453C59.8999 42.5668 59.9717 42.5132 60.0539 42.5132H75.0492C75.2266 42.5132 75.3925 42.4237 75.4872 42.2739C76.1249 41.267 76.698 40.2075 77.1995 39.0996C77.2478 38.9929 77.1688 38.8723 77.0523 38.8723H60.7987C60.729 38.8723 60.6754 38.8119 60.6827 38.7428C60.7072 38.515 60.728 38.2861 60.7451 38.0567C60.7503 37.9886 60.8065 37.936 60.8746 37.936H77.4091C77.5812 37.936 77.7357 37.8299 77.7976 37.6697C78.4831 35.8945 79.0095 33.879 79.0095 33.879H57.6842C51.5216 33.879 46.479 35.9476 43.6807 40.0613C43.6557 40.0982 43.6859 40.1471 43.7306 40.1424C46.2496 39.848 49.0203 41.0495 48.3712 43.8281C48.3291 44.008 48.3338 44.1963 48.3899 44.3721C48.7889 45.6225 48.2849 46.0095 47.7413 45.8894C47.7413 44.0013 44.1098 43.9279 44.2133 47.6287C44.2934 50.5008 47.074 54.3592 53.4586 54.3592H53.4581Z" fill="#2E2E2A"/>
<path d="M38.2502 43.0076C38.2944 42.9743 38.3043 42.9129 38.2736 42.8672L36.3829 40.1562C33.5981 35.9791 28.5253 33.8788 22.3155 33.8788H0.990112C0.990112 33.8788 1.51648 35.8938 2.20202 37.6695C2.26391 37.8302 2.41839 37.9363 2.59055 37.9363H19.125C19.1931 37.9363 19.2493 37.9889 19.2545 38.057C19.2717 38.2869 19.2925 38.5157 19.3169 38.743C19.3242 38.8122 19.2706 38.8726 19.2009 38.8726H2.94684C2.82981 38.8726 2.75127 38.9932 2.79965 39.0999C3.30105 40.2077 3.87424 41.2672 4.51192 42.2742C4.60658 42.424 4.7725 42.5135 4.94987 42.5135H19.9452C20.0274 42.5135 20.0997 42.567 20.1236 42.6456C20.1897 42.8583 20.2583 43.069 20.3306 43.2786C20.3551 43.3498 20.3031 43.4237 20.2277 43.4237H5.56882C5.45023 43.4237 5.38053 43.5584 5.45075 43.6546C6.16125 44.6304 6.93468 45.55 7.76429 46.4082C7.91201 46.5611 8.11486 46.6485 8.32759 46.6485H21.6934C21.787 46.6485 21.8728 46.699 21.9191 46.7801C22.0367 46.9855 22.1573 47.1889 22.2811 47.3902C22.3196 47.4526 22.2754 47.5327 22.2021 47.5327H9.24562C9.13067 47.5327 9.0771 47.6747 9.16292 47.7512C10.16 48.6401 11.2226 49.4489 12.3394 50.1719C12.5089 50.2816 12.7066 50.3414 12.9089 50.3414H24.3003C24.4178 50.3414 24.5297 50.3914 24.6087 50.4787C24.7902 50.6785 24.9759 50.8746 25.1647 51.067C25.2131 51.1164 25.1788 51.1996 25.1096 51.1996H14.422C14.3294 51.1996 14.2992 51.3234 14.3809 51.3666C19.939 54.2897 26.5602 55.2161 33.092 53.4997L35.0675 52.9806L27.1397 64.8728C27.0663 64.9831 27.1131 65.1339 27.2364 65.1818C28.5243 65.6858 29.8339 66.1107 31.1592 66.4566C31.2846 66.4894 31.4151 66.4239 31.4651 66.3037C32.767 63.1543 34.0694 60.0049 35.3713 56.8555C35.3905 56.8087 35.4404 56.7832 35.4893 56.7942C35.5991 56.8186 35.7093 56.842 35.8201 56.8644C35.8825 56.8769 35.919 56.9414 35.8971 57.0012C34.7502 60.1714 33.6033 63.3416 32.4564 66.5118C32.4112 66.6376 32.4866 66.7749 32.6172 66.8036C33.866 67.073 35.1258 67.2732 36.3918 67.4043C36.5223 67.4178 36.6409 67.3258 36.6612 67.1957C37.1725 63.8986 37.6838 60.601 38.195 57.3039C38.2034 57.2498 38.2517 57.2118 38.3064 57.2165C38.4353 57.2269 38.5649 57.2363 38.6944 57.2441C38.7537 57.2477 38.7979 57.2997 38.7916 57.3585C38.4494 60.6681 38.1077 63.9782 37.7654 67.2878C37.7524 67.4131 37.8466 67.5245 37.9724 67.5317C39.3237 67.6103 40.6787 67.6103 42.03 67.5317C42.1558 67.5245 42.2495 67.4131 42.237 67.2878C41.8947 63.9782 41.553 60.6681 41.2108 57.3585C41.2045 57.2997 41.2487 57.2477 41.308 57.2441C41.4375 57.2363 41.5671 57.2269 41.696 57.2165C41.7501 57.2124 41.7985 57.2503 41.8074 57.3039C42.3186 60.601 42.8299 63.8986 43.3412 67.1957C43.3615 67.3258 43.4796 67.4178 43.6106 67.4043C44.8761 67.2732 46.1364 67.073 47.3852 66.8036C47.5158 66.7755 47.5917 66.6376 47.546 66.5118C46.3991 63.3416 45.2522 60.1714 44.1053 57.0012C44.0834 56.9414 44.1204 56.8769 44.1823 56.8644C44.2925 56.842 44.4028 56.8186 44.5131 56.7942C44.5625 56.7832 44.6119 56.8093 44.6311 56.8555C45.933 60.0049 47.2354 63.1543 48.5373 66.3037C48.5867 66.4233 48.7173 66.4894 48.8432 66.4566C50.1684 66.1107 51.4787 65.6858 52.766 65.1818C52.8893 65.1334 52.9361 64.9831 52.8627 64.8728L43.0078 49.9659C42.9818 49.9274 42.934 49.9102 42.8897 49.9243C42.6661 49.9976 42.0014 50.2743 41.5983 51.0738C41.5785 51.1123 41.5234 51.1112 41.5046 51.0717C40.9892 49.9815 41.3101 48.8424 41.4448 48.4632C41.4656 48.405 41.4131 48.3478 41.3533 48.3629C41.0287 48.4461 40.2007 48.7254 39.4226 49.5456C39.3924 49.5779 39.3388 49.5607 39.3326 49.517C39.1354 48.1298 39.7523 47.127 39.9448 46.8534C39.9682 46.8201 39.9453 46.7739 39.9047 46.7723C39.6259 46.7598 38.7594 46.7676 37.6094 47.2123C37.5724 47.2269 37.5329 47.1962 37.5386 47.1572C37.7196 45.913 38.5342 45.1557 38.8546 44.9009C38.8931 44.8702 38.8712 44.8088 38.8223 44.8088C38.348 44.8104 36.9452 44.7313 36.0833 43.8086C36.0537 43.7769 36.0729 43.7254 36.1161 43.7207C37.3816 43.5844 38.0432 43.1668 38.2538 43.0081L38.2502 43.0076Z" fill="#2E2E2A"/>
<path d="M47.8777 42.8428C47.6035 42.7091 47.552 42.7382 47.4589 42.4932C47.447 42.4615 47.4002 42.461 47.3892 42.4932C47.1978 43.0711 47.526 43.018 47.9588 43.6219C47.9754 43.6448 48.0139 43.6401 48.0228 43.6131C48.0607 43.4981 48.0909 43.3442 48.1003 43.237C48.119 43.0222 48.0379 42.9213 47.8777 42.8433V42.8428Z" fill="#2E2E2A"/>
<path d="M39.9999 12.4104C29.4132 12.4104 20.8311 20.9926 20.8311 31.5793H27.8918C27.8918 24.9029 33.3235 19.4707 40.0005 19.4707C46.6774 19.4707 52.1091 24.9024 52.1091 31.5793H59.1699C59.1688 20.9926 50.5867 12.4104 39.9999 12.4104Z" fill="#FFD600"/>
</g>
<defs>
<clipPath id="clip0_2075_76">
<rect width="80" height="80" rx="8" fill="white"/>
</clipPath>
</defs>
</svg>
